<svg width="28" height="28" viewBox="0 0 28 28" fill="none" xmlns="http://www.w3.org/2000/svg">
<g clip-path="url(#clip0_0_1367)">
<path d="M5.99792 16.3549L5.05586 19.8717L1.61268 19.9445C0.58367 18.036 0 15.8523 0 13.5318C0 11.2879 0.545717 9.17182 1.51304 7.30859H1.51378L4.57918 7.87059L5.92201 10.9176C5.64096 11.737 5.48777 12.6165 5.48777 13.5318C5.48788 14.5251 5.66781 15.4768 5.99792 16.3549Z" fill="#FBBB00"/>
<path d="M26.8275 11.0039C26.9829 11.8225 27.0639 12.6679 27.0639 13.5318C27.0639 14.5006 26.9621 15.4457 26.768 16.3572C26.1093 19.4591 24.388 22.1677 22.0036 24.0845L22.0029 24.0838L18.1418 23.8868L17.5954 20.4755C19.1776 19.5476 20.414 18.0955 21.0654 16.3572H13.8295V11.0039H21.1709H26.8275Z" fill="#518EF8"/>
<path d="M22.0029 24.0838L22.0036 24.0845C19.6846 25.9485 16.7388 27.0637 13.532 27.0637C8.37876 27.0637 3.89838 24.1834 1.61281 19.9446L5.99805 16.355C7.14081 19.4048 10.0829 21.5759 13.532 21.5759C15.0146 21.5759 16.4035 21.1751 17.5953 20.4755L22.0029 24.0838Z" fill="#28B446"/>
<path d="M22.1694 3.1153L17.7857 6.70422C16.5522 5.93322 15.0941 5.48783 13.532 5.48783C10.0048 5.48783 7.00771 7.75849 5.92219 10.9177L1.51391 7.30871H1.51317C3.76528 2.96661 8.30217 0 13.532 0C16.8154 0 19.8259 1.16956 22.1694 3.1153Z" fill="#F14336"/>
</g>
<defs>
<clipPath id="clip0_0_1367">
<rect width="27.0638" height="27.0638" fill="white"/>
</clipPath>
</defs>
</svg>
