<svg width="24" height="24" viewBox="0 0 24 24" fill="none" xmlns="http://www.w3.org/2000/svg">
<path d="M10.7372 18.45V19.4014C10.7372 19.6538 10.637 19.8958 10.4586 20.0742C10.2801 20.2527 10.0381 20.3529 9.78579 20.3529H7.88288V21.3044C7.88288 21.809 7.68239 22.293 7.32553 22.6499C6.96866 23.0068 6.48465 23.2073 5.97996 23.2073H2.17414C1.66945 23.2073 1.18544 23.0068 0.828575 22.6499C0.47171 22.293 0.271225 21.809 0.271225 21.3044V18.8439C0.271333 18.3392 0.471888 17.8553 0.828778 17.4985L8.19305 10.1343C7.7415 8.60096 7.7841 6.96442 8.31482 5.45669C8.84553 3.94897 9.83742 2.64657 11.1498 1.73418C12.4623 0.821796 14.0286 0.34572 15.6268 0.373461C17.2249 0.401203 18.7738 0.931353 20.0538 1.88874C21.3337 2.84613 22.2798 4.18216 22.7579 5.7074C23.236 7.23264 23.2217 8.86967 22.7172 10.3864C22.2127 11.9031 21.2436 13.2225 19.9472 14.1575C18.6508 15.0925 17.0929 15.5956 15.4945 15.5956H13.5897V17.4985C13.5897 17.7509 13.4895 17.9929 13.311 18.1713C13.1326 18.3497 12.8906 18.45 12.6383 18.45H10.7353H10.7372ZM17.3974 7.98397C17.9021 7.98397 18.3861 7.78348 18.743 7.42661C19.0999 7.06975 19.3004 6.58574 19.3004 6.08105C19.3004 5.57637 19.0999 5.09236 18.743 4.73549C18.3861 4.37863 17.9021 4.17814 17.3974 4.17814C16.8928 4.17814 16.4087 4.37863 16.0519 4.73549C15.695 5.09236 15.4945 5.57637 15.4945 6.08105C15.4945 6.58574 15.695 7.06975 16.0519 7.42661C16.4087 7.78348 16.8928 7.98397 17.3974 7.98397V7.98397Z" fill="white"/>
</svg>
