<svg width="233" height="43" viewBox="0 0 233 43" fill="none" xmlns="http://www.w3.org/2000/svg">
<path d="M31.8947 29.92C31.8947 27.856 32.2787 26.044 33.0467 24.484C33.8387 22.924 34.9067 21.724 36.2507 20.884C37.5947 20.044 39.0947 19.624 40.7507 19.624C42.1667 19.624 43.4027 19.912 44.4587 20.488C45.5387 21.064 46.3667 21.82 46.9427 22.756V19.912H53.0987V40H46.9427V37.156C46.3427 38.092 45.5027 38.848 44.4227 39.424C43.3667 40 42.1307 40.288 40.7147 40.288C39.0827 40.288 37.5947 39.868 36.2507 39.028C34.9067 38.164 33.8387 36.952 33.0467 35.392C32.2787 33.808 31.8947 31.984 31.8947 29.92ZM46.9427 29.956C46.9427 28.42 46.5107 27.208 45.6467 26.32C44.8067 25.432 43.7747 24.988 42.5507 24.988C41.3267 24.988 40.2827 25.432 39.4187 26.32C38.5787 27.184 38.1587 28.384 38.1587 29.92C38.1587 31.456 38.5787 32.68 39.4187 33.592C40.2827 34.48 41.3267 34.924 42.5507 34.924C43.7747 34.924 44.8067 34.48 45.6467 33.592C46.5107 32.704 46.9427 31.492 46.9427 29.956ZM83.1843 19.696C85.6803 19.696 87.6603 20.452 89.1243 21.964C90.6123 23.476 91.3563 25.576 91.3563 28.264V40H85.2363V29.092C85.2363 27.796 84.8883 26.8 84.1923 26.104C83.5203 25.384 82.5843 25.024 81.3843 25.024C80.1843 25.024 79.2363 25.384 78.5403 26.104C77.8683 26.8 77.5323 27.796 77.5323 29.092V40H71.4123V29.092C71.4123 27.796 71.0643 26.8 70.3683 26.104C69.6963 25.384 68.7603 25.024 67.5603 25.024C66.3603 25.024 65.4123 25.384 64.7163 26.104C64.0443 26.8 63.7083 27.796 63.7083 29.092V40H57.5523V19.912H63.7083V22.432C64.3323 21.592 65.1483 20.932 66.1563 20.452C67.1643 19.948 68.3043 19.696 69.5763 19.696C71.0883 19.696 72.4323 20.02 73.6083 20.668C74.8083 21.316 75.7443 22.24 76.4163 23.44C77.1123 22.336 78.0603 21.436 79.2603 20.74C80.4603 20.044 81.7683 19.696 83.1843 19.696ZM114.598 29.632C114.598 30.208 114.562 30.808 114.49 31.432H100.558C100.654 32.68 101.05 33.64 101.746 34.312C102.466 34.96 103.342 35.284 104.374 35.284C105.91 35.284 106.978 34.636 107.578 33.34H114.13C113.794 34.66 113.182 35.848 112.294 36.904C111.43 37.96 110.338 38.788 109.018 39.388C107.698 39.988 106.222 40.288 104.59 40.288C102.622 40.288 100.87 39.868 99.3337 39.028C97.7977 38.188 96.5977 36.988 95.7337 35.428C94.8697 33.868 94.4377 32.044 94.4377 29.956C94.4377 27.868 94.8577 26.044 95.6977 24.484C96.5617 22.924 97.7617 21.724 99.2977 20.884C100.834 20.044 102.598 19.624 104.59 19.624C106.534 19.624 108.262 20.032 109.774 20.848C111.286 21.664 112.462 22.828 113.302 24.34C114.166 25.852 114.598 27.616 114.598 29.632ZM108.298 28.012C108.298 26.956 107.938 26.116 107.218 25.492C106.498 24.868 105.598 24.556 104.518 24.556C103.486 24.556 102.61 24.856 101.89 25.456C101.194 26.056 100.762 26.908 100.594 28.012H108.298ZM137.105 22.864C137.105 24.328 136.769 25.672 136.097 26.896C135.425 28.096 134.393 29.068 133.001 29.812C131.609 30.556 129.881 30.928 127.817 30.928H124.001V40H117.845V14.728H127.817C129.833 14.728 131.537 15.076 132.929 15.772C134.321 16.468 135.365 17.428 136.061 18.652C136.757 19.876 137.105 21.28 137.105 22.864ZM127.349 26.032C128.525 26.032 129.401 25.756 129.977 25.204C130.553 24.652 130.841 23.872 130.841 22.864C130.841 21.856 130.553 21.076 129.977 20.524C129.401 19.972 128.525 19.696 127.349 19.696H124.001V26.032H127.349ZM139.086 29.92C139.086 27.856 139.47 26.044 140.238 24.484C141.03 22.924 142.098 21.724 143.442 20.884C144.786 20.044 146.286 19.624 147.942 19.624C149.358 19.624 150.594 19.912 151.65 20.488C152.73 21.064 153.558 21.82 154.134 22.756V19.912H160.29V40H154.134V37.156C153.534 38.092 152.694 38.848 151.614 39.424C150.558 40 149.322 40.288 147.906 40.288C146.274 40.288 144.786 39.868 143.442 39.028C142.098 38.164 141.03 36.952 140.238 35.392C139.47 33.808 139.086 31.984 139.086 29.92ZM154.134 29.956C154.134 28.42 153.702 27.208 152.838 26.32C151.998 25.432 150.966 24.988 149.742 24.988C148.518 24.988 147.474 25.432 146.61 26.32C145.77 27.184 145.35 28.384 145.35 29.92C145.35 31.456 145.77 32.68 146.61 33.592C147.474 34.48 148.518 34.924 149.742 34.924C150.966 34.924 151.998 34.48 152.838 33.592C153.702 32.704 154.134 31.492 154.134 29.956ZM167.84 17.824C166.76 17.824 165.872 17.512 165.176 16.888C164.504 16.24 164.168 15.448 164.168 14.512C164.168 13.552 164.504 12.76 165.176 12.136C165.872 11.488 166.76 11.164 167.84 11.164C168.896 11.164 169.76 11.488 170.432 12.136C171.128 12.76 171.476 13.552 171.476 14.512C171.476 15.448 171.128 16.24 170.432 16.888C169.76 17.512 168.896 17.824 167.84 17.824ZM170.9 19.912V40H164.744V19.912H170.9ZM181.517 23.26C182.237 22.156 183.137 21.292 184.217 20.668C185.297 20.02 186.497 19.696 187.817 19.696V26.212H186.125C184.589 26.212 183.437 26.548 182.669 27.22C181.901 27.868 181.517 29.02 181.517 30.676V40H175.361V19.912H181.517V23.26ZM193.639 40.288C192.559 40.288 191.671 39.976 190.975 39.352C190.303 38.704 189.967 37.912 189.967 36.976C189.967 36.016 190.303 35.212 190.975 34.564C191.671 33.916 192.559 33.592 193.639 33.592C194.695 33.592 195.559 33.916 196.231 34.564C196.927 35.212 197.275 36.016 197.275 36.976C197.275 37.912 196.927 38.704 196.231 39.352C195.559 39.976 194.695 40.288 193.639 40.288Z" fill="white"/>
<path d="M27.0702 12C27.3536 12.6291 27.7641 13.2241 28.1087 13.8217C28.4401 14.3967 28.7715 14.9716 29.1029 15.5465C29.7699 16.7035 30.4747 17.8469 31.1019 19.0259C28.3217 19.0986 25.5305 19.0304 22.7496 19.0308C21.4096 19.0308 20.0583 18.9728 18.7202 19.0187C17.4763 19.0615 16.2903 19.4424 15.2427 20.112C13.4405 21.2645 12.2443 23.2026 12.0445 25.3416C11.8274 27.6681 12.814 29.9568 14.6144 31.4291C15.6332 32.2621 16.8869 32.7779 18.1924 32.9302C19.5525 33.0886 21.2303 32.8745 22.3856 32.0794C21.2545 30.0541 20.1271 28.0353 18.9914 26.001H26.9458C29.6242 30.6488 32.3049 35.3011 35 39.9788C29.5996 39.9788 24.1966 40.027 18.7966 39.9781C14.2228 39.9368 9.85523 37.528 7.33115 33.7158C6.67289 32.7214 6.15044 31.6394 5.76873 30.5097C5.56557 29.9086 5.39798 29.2939 5.27579 28.6713C5.13695 27.9637 5.10668 27.2493 5 26.5395C5 26.1821 5 25.8247 5 25.4678C5.01702 25.3416 5.04237 25.2157 5.04994 25.0888C5.09723 24.3054 5.20921 23.5316 5.39344 22.7698C6.08235 19.9188 7.50971 17.5009 9.7005 15.5541C12.1826 13.3488 15.0926 12.1713 18.4126 12.0235C18.4898 12.0201 18.5662 12.008 18.643 12C21.452 12 24.2613 12 27.0702 12Z" fill="white"/>
</svg>
