<svg width="247" height="38" viewBox="0 0 247 38" fill="none" xmlns="http://www.w3.org/2000/svg">
<path d="M23.0624 14.92C22.4797 13.8467 21.6364 13.034 20.5324 12.482C19.4591 11.8993 18.1864 11.608 16.7144 11.608C14.1691 11.608 12.1297 12.4513 10.5964 14.138C9.06308 15.794 8.29641 18.0173 8.29641 20.808C8.29641 23.7827 9.09375 26.1133 10.6884 27.8C12.3137 29.456 14.5371 30.284 17.3584 30.284C19.2904 30.284 20.9157 29.7933 22.2344 28.812C23.5837 27.8307 24.5651 26.42 25.1784 24.58H15.1964V18.784H32.3084V26.098C31.7257 28.0607 30.7291 29.8853 29.3184 31.572C27.9384 33.2587 26.1751 34.6233 24.0284 35.666C21.8817 36.7087 19.4591 37.23 16.7604 37.23C13.5711 37.23 10.7191 36.54 8.20441 35.16C5.72041 33.7493 3.77308 31.802 2.36241 29.318C0.982414 26.834 0.292414 23.9973 0.292414 20.808C0.292414 17.6187 0.982414 14.782 2.36241 12.298C3.77308 9.78333 5.72041 7.836 8.20441 6.456C10.6884 5.04533 13.5251 4.34 16.7144 4.34C20.5784 4.34 23.8291 5.27533 26.4664 7.146C29.1344 9.01667 30.8977 11.608 31.7564 14.92H23.0624ZM35.1015 24.12C35.1015 21.4827 35.5921 19.1673 36.5735 17.174C37.5855 15.1807 38.9501 13.6473 40.6675 12.574C42.3848 11.5007 44.3015 10.964 46.4175 10.964C48.2268 10.964 49.8061 11.332 51.1555 12.068C52.5355 12.804 53.5935 13.77 54.3295 14.966V11.332H62.1955V37H54.3295V33.366C53.5628 34.562 52.4895 35.528 51.1095 36.264C49.7601 37 48.1808 37.368 46.3715 37.368C44.2861 37.368 42.3848 36.8313 40.6675 35.758C38.9501 34.654 37.5855 33.1053 36.5735 31.112C35.5921 29.088 35.1015 26.7573 35.1015 24.12ZM54.3295 24.166C54.3295 22.2033 53.7775 20.6547 52.6735 19.52C51.6001 18.3853 50.2815 17.818 48.7175 17.818C47.1535 17.818 45.8195 18.3853 44.7155 19.52C43.6421 20.624 43.1055 22.1573 43.1055 24.12C43.1055 26.0827 43.6421 27.6467 44.7155 28.812C45.8195 29.9467 47.1535 30.514 48.7175 30.514C50.2815 30.514 51.6001 29.9467 52.6735 28.812C53.7775 27.6773 54.3295 26.1287 54.3295 24.166ZM100.638 11.056C103.828 11.056 106.358 12.022 108.228 13.954C110.13 15.886 111.08 18.5693 111.08 22.004V37H103.26V23.062C103.26 21.406 102.816 20.1333 101.926 19.244C101.068 18.324 99.8715 17.864 98.3382 17.864C96.8048 17.864 95.5935 18.324 94.7042 19.244C93.8455 20.1333 93.4162 21.406 93.4162 23.062V37H85.5962V23.062C85.5962 21.406 85.1515 20.1333 84.2622 19.244C83.4035 18.324 82.2075 17.864 80.6742 17.864C79.1408 17.864 77.9295 18.324 77.0402 19.244C76.1815 20.1333 75.7522 21.406 75.7522 23.062V37H67.8862V11.332H75.7522V14.552C76.5495 13.4787 77.5922 12.6353 78.8802 12.022C80.1682 11.378 81.6248 11.056 83.2502 11.056C85.1822 11.056 86.8995 11.47 88.4022 12.298C89.9355 13.126 91.1315 14.3067 91.9902 15.84C92.8795 14.4293 94.0908 13.2793 95.6242 12.39C97.1575 11.5007 98.8288 11.056 100.638 11.056ZM140.777 23.752C140.777 24.488 140.731 25.2547 140.639 26.052H122.837C122.96 27.6467 123.466 28.8733 124.355 29.732C125.275 30.56 126.395 30.974 127.713 30.974C129.676 30.974 131.041 30.146 131.807 28.49H140.179C139.75 30.1767 138.968 31.6947 137.833 33.044C136.729 34.3933 135.334 35.4513 133.647 36.218C131.961 36.9847 130.075 37.368 127.989 37.368C125.475 37.368 123.236 36.8313 121.273 35.758C119.311 34.6847 117.777 33.1513 116.673 31.158C115.569 29.1647 115.017 26.834 115.017 24.166C115.017 21.498 115.554 19.1673 116.627 17.174C117.731 15.1807 119.265 13.6473 121.227 12.574C123.19 11.5007 125.444 10.964 127.989 10.964C130.473 10.964 132.681 11.4853 134.613 12.528C136.545 13.5707 138.048 15.058 139.121 16.99C140.225 18.922 140.777 21.176 140.777 23.752ZM132.727 21.682C132.727 20.3327 132.267 19.2593 131.347 18.462C130.427 17.6647 129.277 17.266 127.897 17.266C126.579 17.266 125.459 17.6493 124.539 18.416C123.65 19.1827 123.098 20.2713 122.883 21.682H132.727ZM169.537 15.104C169.537 16.9747 169.108 18.692 168.249 20.256C167.391 21.7893 166.072 23.0313 164.293 23.982C162.515 24.9327 160.307 25.408 157.669 25.408H152.793V37H144.927V4.708H157.669C160.245 4.708 162.423 5.15267 164.201 6.042C165.98 6.93133 167.314 8.158 168.203 9.722C169.093 11.286 169.537 13.08 169.537 15.104ZM157.071 19.152C158.574 19.152 159.693 18.7993 160.429 18.094C161.165 17.3887 161.533 16.392 161.533 15.104C161.533 13.816 161.165 12.8193 160.429 12.114C159.693 11.4087 158.574 11.056 157.071 11.056H152.793V19.152H157.071ZM172.068 24.12C172.068 21.4827 172.559 19.1673 173.54 17.174C174.552 15.1807 175.917 13.6473 177.634 12.574C179.352 11.5007 181.268 10.964 183.384 10.964C185.194 10.964 186.773 11.332 188.122 12.068C189.502 12.804 190.56 13.77 191.296 14.966V11.332H199.162V37H191.296V33.366C190.53 34.562 189.456 35.528 188.076 36.264C186.727 37 185.148 37.368 183.338 37.368C181.253 37.368 179.352 36.8313 177.634 35.758C175.917 34.654 174.552 33.1053 173.54 31.112C172.559 29.088 172.068 26.7573 172.068 24.12ZM191.296 24.166C191.296 22.2033 190.744 20.6547 189.64 19.52C188.567 18.3853 187.248 17.818 185.684 17.818C184.12 17.818 182.786 18.3853 181.682 19.52C180.609 20.624 180.072 22.1573 180.072 24.12C180.072 26.0827 180.609 27.6467 181.682 28.812C182.786 29.9467 184.12 30.514 185.684 30.514C187.248 30.514 188.567 29.9467 189.64 28.812C190.744 27.6773 191.296 26.1287 191.296 24.166ZM208.809 8.664C207.429 8.664 206.294 8.26533 205.405 7.468C204.546 6.64 204.117 5.628 204.117 4.432C204.117 3.20533 204.546 2.19333 205.405 1.396C206.294 0.567997 207.429 0.153997 208.809 0.153997C210.158 0.153997 211.262 0.567997 212.121 1.396C213.01 2.19333 213.455 3.20533 213.455 4.432C213.455 5.628 213.01 6.64 212.121 7.468C211.262 8.26533 210.158 8.664 208.809 8.664ZM212.719 11.332V37H204.853V11.332H212.719ZM226.285 15.61C227.205 14.1993 228.355 13.0953 229.735 12.298C231.115 11.47 232.649 11.056 234.335 11.056V19.382H232.173C230.211 19.382 228.739 19.8113 227.757 20.67C226.776 21.498 226.285 22.97 226.285 25.086V37H218.419V11.332H226.285V15.61ZM241.775 37.368C240.395 37.368 239.26 36.9693 238.371 36.172C237.512 35.344 237.083 34.332 237.083 33.136C237.083 31.9093 237.512 30.882 238.371 30.054C239.26 29.226 240.395 28.812 241.775 28.812C243.124 28.812 244.228 29.226 245.087 30.054C245.976 30.882 246.421 31.9093 246.421 33.136C246.421 34.332 245.976 35.344 245.087 36.172C244.228 36.9693 243.124 37.368 241.775 37.368Z" fill="white"/>
</svg>
